<svg width="472" height="470" viewBox="0 0 472 470" fill="none" xmlns="http://www.w3.org/2000/svg">
<g clip-path="url(#clip0_1440_45)">
<path d="M393.387 60.2413C391.372 48.602 382.684 41.4186 365.418 44.4456C345.175 25.7031 315.369 39.1229 314.675 59.8621C290.113 57.206 282.21 67.5186 282.21 77.3702C298.222 77.3702 403.558 77.3702 419.311 77.3702C418.465 65.5358 406.129 59.1943 393.387 60.2413Z" fill="#FCFCFC"/>
<path d="M183.117 34.1285C181.094 23.8745 172.378 17.5452 155.057 20.2123C136.935 3.86779 107.356 14.3783 104.151 33.7947C79.5102 31.4548 71.5818 40.5402 71.5818 49.22C87.6457 49.22 193.319 49.22 209.124 49.22C208.274 38.7935 195.898 33.206 183.117 34.1285Z" fill="#FCFCFC"/>
<path d="M298.364 334.365H155.357V312.066H302.319V334.365H298.364Z" fill="#BDFFD8"/>
<path d="M276.243 356.664H133.236V334.365H280.197V356.664H276.243Z" fill="#92F2B8"/>
<path d="M160.73 378.964H307.692V356.664H160.73V378.964Z" fill="#BDFFD8"/>
<path d="M286.799 401.263H143.792V378.963H290.753V401.263H286.799Z" fill="#92F2B8"/>
<path d="M307.415 423.562H164.408V401.263H311.37V423.562H307.415Z" fill="#BDFFD8"/>
<path d="M294.283 445.862H151.276V423.562H298.238V445.862H294.283Z" fill="#92F2B8"/>
<path d="M189.844 378.964H42.8823V356.664H160.73V378.964H189.844Z" fill="#FCFCFC"/>
<path d="M160.73 378.964H189.844V356.664H160.73V378.964Z" fill="#BDFFD8"/>
<path d="M178.812 401.263H31.8506V378.963H143.792V401.263H147.746H178.812Z" fill="#CDFFE1"/>
<path d="M178.812 401.263H143.792V378.963H178.812V401.263Z" fill="#97F9BE"/>
<path d="M171.371 423.562H24.4092V401.263H164.408V423.562H168.362H171.371Z" fill="#FCFCFC"/>
<path d="M171.371 423.562H164.408V401.263H171.371V423.562Z" fill="#BDFFD8"/>
<path d="M187.773 445.862H40.8118V423.562H151.276V445.862H155.23H187.773Z" fill="#CDFFE1"/>
<path d="M187.773 445.862H151.276V423.562H187.773V445.862Z" fill="#97F9BE"/>
<path d="M437.329 401.263H290.367H290.753V378.963H437.329V401.263Z" fill="#CDFFE1"/>
<path d="M290.367 401.263H290.753V378.963H290.367V401.263Z" fill="#97F9BE"/>
<path d="M437.329 378.964H290.367H307.692V356.664H437.329V378.964Z" fill="#FCFCFC"/>
<path d="M290.367 378.964H307.692V356.664H290.367V378.964Z" fill="#BDFFD8"/>
<path d="M449.692 423.562H302.731H311.37V401.263H449.692V423.562Z" fill="#FCFCFC"/>
<path d="M311.37 423.562H302.731V401.263H311.37V423.562Z" fill="#BDFFD8"/>
<path d="M418.523 445.862H271.562H298.238V423.562H418.523V445.862Z" fill="#CDFFE1"/>
<path d="M298.238 445.862H271.562V423.562H298.238V445.862Z" fill="#97F9BE"/>
<path d="M14.5641 186.427C14.5641 186.427 74.7283 167.252 103.623 177.595C125.744 185.514 145.396 212.483 145.396 212.483C145.396 212.483 109.755 251.601 64.7687 234.805C29.3247 221.573 14.5641 186.427 14.5641 186.427Z" fill="#FCFCFC"/>
<path d="M56.5572 56.0501C56.5572 56.0501 101.698 95.3189 129.373 149.057C146.463 182.241 143.477 238.803 143.477 238.803C143.477 238.803 64.5328 211.835 48.3579 163.976C36.7158 129.528 56.5572 56.0501 56.5572 56.0501Z" fill="#FCFCFC"/>
<path d="M364.111 173.549C364.111 251.677 300.506 315.012 222.046 315.012C143.585 315.012 79.9799 251.677 79.9799 173.549C79.9799 95.4207 143.585 32.0855 222.046 32.0855C300.506 32.0855 364.111 95.4207 364.111 173.549Z" fill="white"/>
<path d="M364.111 173.549H362.724C362.722 212.235 346.979 247.247 321.52 272.602C296.058 297.953 260.897 313.629 222.046 313.631C183.194 313.629 148.033 297.953 122.572 272.602C97.1118 247.247 81.3688 212.236 81.3677 173.549C81.3688 134.862 97.1118 99.8506 122.572 74.4963C148.033 49.1442 183.194 33.4679 222.046 33.4668C260.897 33.4679 296.058 49.1442 321.52 74.4963C346.979 99.8506 362.722 134.862 362.724 173.549H364.111H365.499C365.498 94.6572 301.273 30.704 222.046 30.7029C142.818 30.704 78.5932 94.6572 78.592 173.549C78.5932 252.441 142.818 316.393 222.046 316.394C301.273 316.393 365.498 252.441 365.499 173.549H364.111Z" fill="#4ACFD3"/>
<path d="M349.905 173.549C349.905 243.864 292.66 300.866 222.046 300.866C151.431 300.866 94.1868 243.864 94.1868 173.549C94.1868 103.234 151.431 46.2316 222.046 46.2316C292.66 46.2316 349.905 103.234 349.905 173.549Z" fill="#1890FF"/>
<path d="M349.905 173.549H348.517C348.516 208.33 334.364 239.804 311.474 262.599C288.583 285.391 256.974 299.484 222.046 299.484C187.117 299.484 155.508 285.391 132.617 262.599C109.728 239.804 95.5752 208.33 95.5746 173.549C95.5752 138.768 109.728 107.293 132.617 84.4994C155.508 61.7073 187.117 47.6142 222.046 47.6136C256.974 47.6142 288.583 61.7073 311.474 84.4994C334.364 107.293 348.516 138.768 348.517 173.549H349.905H351.293C351.292 102.47 293.427 44.8503 222.046 44.8497C150.664 44.8508 92.7995 102.47 92.799 173.549C92.7995 244.628 150.664 302.247 222.046 302.248C293.427 302.247 351.292 244.628 351.293 173.549H349.905Z" fill="white"/>
<path d="M321.491 173.549C321.491 228.238 276.968 272.573 222.046 272.573C167.123 272.573 122.599 228.238 122.599 173.549C122.599 118.859 167.123 74.5245 222.046 74.5245C276.968 74.5245 321.491 118.859 321.491 173.549Z" fill="white"/>
<path d="M321.491 173.549H320.103C320.103 200.517 309.13 224.918 291.383 242.592C273.634 260.264 249.128 271.19 222.046 271.191C194.963 271.19 170.457 260.264 152.708 242.592C134.961 224.918 123.988 200.517 123.987 173.549C123.988 146.581 134.961 122.18 152.708 104.505C170.457 86.8332 194.963 75.907 222.046 75.9064C249.128 75.907 273.634 86.8332 291.383 104.505C309.13 122.18 320.103 146.581 320.103 173.549H321.491H322.879C322.878 118.096 277.735 73.1431 222.046 73.1425C166.356 73.1431 121.213 118.095 121.212 173.549C121.213 229.002 166.356 273.954 222.046 273.955C277.735 273.954 322.878 229.002 322.879 173.549H321.491Z" fill="#4ACFD3"/>
<path d="M307.072 173.549C307.072 220.309 269.004 258.215 222.046 258.215C175.087 258.215 137.02 220.309 137.02 173.549C137.02 126.789 175.087 88.883 222.046 88.883C269.004 88.883 307.072 126.789 307.072 173.549Z" fill="#1890FF"/>
<path d="M307.072 173.549H305.684C305.683 196.552 296.325 217.364 281.187 232.44C266.047 247.513 245.146 256.832 222.046 256.833C198.945 256.832 178.044 247.513 162.904 232.44C147.766 217.364 138.408 196.552 138.407 173.549C138.408 150.546 147.766 129.734 162.904 114.659C178.044 99.5848 198.945 90.2655 222.046 90.265C245.146 90.2655 266.047 99.5848 281.187 114.659C296.325 129.734 305.683 150.546 305.684 173.549H307.072H308.46C308.459 126.025 269.771 87.5022 222.046 87.5011C174.32 87.5022 135.632 126.025 135.632 173.549C135.632 221.072 174.32 259.596 222.046 259.597C269.771 259.596 308.459 221.072 308.46 173.549H307.072Z" fill="white"/>
<path d="M278.257 173.549C278.257 204.462 253.09 229.523 222.046 229.523C191.001 229.523 165.834 204.462 165.834 173.549C165.834 142.636 191.001 117.575 222.046 117.575C253.09 117.575 278.257 142.636 278.257 173.549Z" fill="white"/>
<path d="M278.257 173.549H276.869C276.869 188.629 270.735 202.268 260.812 212.151C250.886 222.032 237.189 228.14 222.046 228.141C206.902 228.14 193.205 222.032 183.279 212.151C173.356 202.268 167.222 188.629 167.221 173.549C167.222 158.47 173.356 144.83 183.279 134.947C193.205 125.066 206.902 118.958 222.046 118.957C237.189 118.958 250.886 125.066 260.812 134.947C270.735 144.83 276.869 158.47 276.869 173.549H278.257H279.645C279.644 141.872 253.857 116.194 222.046 116.193C190.234 116.194 164.447 141.872 164.446 173.549C164.447 205.226 190.234 230.903 222.046 230.905C253.857 230.903 279.644 205.226 279.645 173.549H278.257Z" fill="#4ACFD3"/>
<path d="M263.953 173.549C263.953 196.596 245.191 215.279 222.046 215.279C198.901 215.279 180.138 196.596 180.138 173.549C180.138 150.502 198.901 131.82 222.046 131.82C245.191 131.82 263.953 150.502 263.953 173.549Z" fill="#1890FF"/>
<path d="M263.953 173.549H262.565C262.565 184.695 258.032 194.773 250.697 202.079C243.36 209.383 233.239 213.896 222.046 213.897C210.852 213.896 200.731 209.383 193.394 202.079C186.059 194.773 181.527 184.695 181.526 173.549C181.527 162.402 186.059 152.325 193.394 145.019C200.731 137.715 210.852 133.202 222.046 133.201C233.239 133.202 243.36 137.715 250.697 145.019C258.032 152.325 262.564 162.402 262.565 173.549H263.953H265.341C265.34 149.738 245.958 130.438 222.046 130.437C198.134 130.438 178.752 149.738 178.75 173.549C178.752 197.359 198.134 216.659 222.046 216.66C245.958 216.659 265.34 197.359 265.341 173.549H263.953Z" fill="white"/>
<path d="M466.727 100.007L467.439 102.495L416.87 118.171L311.588 155.562L311.945 156.763C305.345 158.917 299.499 160.796 294.742 162.284C289.236 164.006 283.4 160.735 281.779 155.22C280.159 149.705 283.307 143.829 288.873 142.313C293.54 141.043 299.802 139.37 306.276 137.683L306.579 138.704L415.707 114.258L466.727 100.007Z" fill="#1A488F"/>
<path d="M289.658 150.855L290.761 154.682L248.717 166.446L222.327 173.344L222.046 172.391L247.878 163.862L289.658 150.855Z" fill="#1A488F"/>
<path d="M461.489 103.578C477.254 113.617 475.552 132.588 454.604 134.204C427.074 136.328 403.275 120.657 403.275 120.657L461.489 103.578Z" fill="#1A488F"/>
<path d="M461.11 102.37C468.852 85.4066 457.058 70.4109 438.6 80.4034C414.34 93.5369 402.935 119.58 402.935 119.58L461.11 102.37Z" fill="#1A488F"/>
<path d="M456.107 445.787H-0.000244141V451.961H456.107V445.787Z" fill="#FCFCFC"/>
<path d="M167.656 226.005C167.656 226.005 167.269 200.304 167.944 199.647C169.001 198.617 171.768 200.838 173.041 202.273C176.538 206.215 193.261 242.251 189.568 255.942C189.004 258.033 182.837 260.334 182.837 260.334C182.837 260.334 173.83 251.42 173.487 250.633C171.194 245.357 168.347 228.274 168.347 228.274C167.893 227.599 167.653 226.812 167.656 226.005Z" fill="#00C18D"/>
<path d="M139.954 203.755C144.516 203.943 152.7 196.444 154.414 193.618C154.414 193.618 152.589 191.579 150.698 190.948C139.452 187.194 140.273 186.29 131.113 190.165C130.029 190.624 126.53 191.952 126.53 191.952C126.608 192.328 135.941 203.589 139.954 203.755Z" fill="#C2866E"/>
<path d="M139.291 200.107C134.18 199.508 130.625 194.755 131.514 189.707L133.43 178.826L150.016 180.54L149.279 191.827C148.945 196.926 144.387 200.705 139.291 200.107Z" fill="#B97860"/>
<path d="M117.997 410.8L120.341 436.858L128.17 437.188L129.117 424.833L126.229 416.551L117.997 410.8Z" fill="#00D89E"/>
<path d="M168.68 281.126L171.398 299.419L171.802 317.528H110.608L112.307 302.936L117.143 279.442L168.68 281.126Z" fill="#00649F"/>
<path d="M169.528 199.202C167.746 196.731 150.487 189.961 150.487 189.961C150.487 189.961 150.259 193.106 149.066 194.973C146.551 198.909 136.702 200.013 133.725 196.394C132.238 194.587 129.591 190.329 129.591 190.329C129.591 190.329 119.123 193.035 114.574 195.9C111.662 197.735 109.334 216.124 110.608 234.121C112.258 257.42 114.004 284.5 114.004 284.5L170.455 282.964L169.473 229.19C169.473 229.19 171.202 201.522 169.528 199.202Z" fill="#00D3A7"/>
<path d="M118.666 430.205C118.666 430.205 113.74 423.394 112.875 385.711C112.793 382.149 117.331 362.206 123.203 360.324C126.336 359.319 131.987 361.863 133.874 364.508C140.194 373.363 130.213 430.205 130.213 430.205H118.666Z" fill="#00649F"/>
<path d="M147.535 416.512L148.44 437.146L158 435.175L158.128 419.177L147.535 416.512Z" fill="#00D89E"/>
<path d="M163.323 363.571C165.091 370.867 164.334 390.407 164.334 390.407L159.001 428.57L145.951 429.219L143.026 379.293C143.026 379.293 144.876 365.44 146.649 362.732C148.33 360.163 161.816 357.356 163.323 363.571Z" fill="#00649F"/>
<path d="M160.7 431.633C174.031 439.333 174.625 435.039 178.579 438.081C179.199 438.558 179.581 439.447 179.788 440.2C179.982 440.908 178.954 443.223 178.954 443.223L146.21 442.576C145.596 441.556 145.496 438.644 145.619 437.792C145.827 436.348 147.312 430.969 147.312 430.969L147.784 430.98C148.206 430.989 148.608 431.173 148.891 431.485C151.449 434.305 155.779 432.545 157.467 431.229C158.12 430.719 157.085 429.576 158.887 429.816C159.421 429.887 160.257 431.377 160.7 431.633Z" fill="#004381"/>
<path d="M179.418 442.084C179.418 442.084 178.759 442.909 175.986 442.909C152.719 442.909 146.21 442.576 146.21 442.576L146.927 445.543L178.311 445.445L179.418 442.084Z" fill="#DCF5F9"/>
<path d="M159.632 433.574C160.053 433.102 160.63 432.703 161.1 432.428C161.335 432.291 161.543 432.183 161.691 432.11C161.766 432.074 161.824 432.047 161.865 432.028L161.924 432.002C162.065 431.942 162.131 431.78 162.071 431.639C162.011 431.499 161.848 431.434 161.707 431.494C161.691 431.504 160.184 432.133 159.218 433.207C159.116 433.321 159.126 433.496 159.241 433.597C159.355 433.698 159.531 433.688 159.633 433.574" fill="#8CEAE7"/>
<path d="M161.26 435.418C161.939 435.05 162.518 434.434 162.94 433.91C163.361 433.386 163.62 432.952 163.624 432.945C163.703 432.814 163.659 432.644 163.527 432.566C163.396 432.488 163.225 432.532 163.147 432.663L163.105 432.731C162.909 433.051 161.992 434.402 160.996 434.932C160.861 435.005 160.811 435.173 160.884 435.307C160.957 435.441 161.126 435.491 161.26 435.418Z" fill="#8CEAE7"/>
<path d="M164.076 436.465C164.58 436.028 164.892 435.392 165.095 434.864C165.296 434.335 165.38 433.911 165.382 433.901C165.412 433.752 165.313 433.606 165.164 433.577C165.013 433.547 164.867 433.644 164.837 433.794L164.823 433.859C164.788 434.011 164.686 434.415 164.501 434.853C164.319 435.292 164.049 435.76 163.714 436.046C163.597 436.145 163.584 436.32 163.684 436.435C163.784 436.551 163.959 436.564 164.076 436.465Z" fill="#8CEAE7"/>
<path d="M129.154 432.67L130.813 438.478C131.166 439.714 131.762 440.876 132.571 441.904C133.06 442.525 133.246 443.312 133.083 444.071L132.099 446.593L116.901 446.889L115.96 444.922C115.637 444.245 115.62 443.474 115.913 442.786L116.494 441.42C116.833 440.621 117.748 439.294 117.87 438.442C118.079 436.998 118.736 432.67 118.736 432.67L119.719 432.875C120.141 432.963 120.577 432.855 120.907 432.592C121.554 432.077 122.851 431.314 124.652 431.555C125.187 431.625 126.466 432.321 127.149 432.711C127.442 432.877 127.791 432.933 128.126 432.868L129.154 432.67Z" fill="#004381"/>
<path d="M133.14 443.626C133.14 443.626 132.161 445.032 131.382 445.048C128.755 445.102 127.915 444.193 124.423 444.193C121.71 444.193 118.714 445.194 117.236 445.248C116.906 445.26 115.85 444.654 115.85 444.654C115.85 444.654 116.878 447.331 117.172 447.571C117.465 447.81 117.856 448.053 118.635 448.053C120.033 448.053 123.125 448.035 124.521 448.053C125.878 448.069 127.927 448.209 130.381 448.053C131.247 447.997 131.894 447.396 132.077 446.982C133.174 444.51 133.14 443.626 133.14 443.626Z" fill="#DCF5F9"/>
<path d="M120.492 439.846C121.783 439.014 123.097 438.754 124.249 438.754C125.219 438.753 126.071 438.94 126.679 439.127C126.983 439.22 127.225 439.313 127.39 439.383C127.472 439.417 127.536 439.446 127.577 439.465L127.624 439.488L127.637 439.494C127.773 439.564 127.941 439.51 128.011 439.375C128.081 439.239 128.028 439.072 127.892 439.002C127.869 438.992 126.332 438.203 124.249 438.201C123.014 438.2 121.583 438.483 120.19 439.382C120.061 439.465 120.024 439.636 120.108 439.765C120.191 439.893 120.363 439.929 120.492 439.846Z" fill="#8CEAE7"/>
<path d="M119.707 437.877C120.97 436.969 122.389 436.673 123.715 436.672C124.933 436.672 126.066 436.925 126.891 437.179C127.304 437.306 127.639 437.434 127.87 437.528C127.986 437.576 128.075 437.615 128.135 437.642L128.203 437.673L128.224 437.683C128.361 437.75 128.527 437.694 128.595 437.557C128.663 437.42 128.607 437.255 128.469 437.187C128.448 437.179 126.304 436.122 123.715 436.12C122.309 436.119 120.762 436.437 119.382 437.429C119.258 437.518 119.229 437.691 119.319 437.814C119.409 437.938 119.582 437.966 119.707 437.877Z" fill="#8CEAE7"/>
<path d="M120.489 435.736C121.805 434.909 122.995 434.645 123.998 434.644C124.95 434.644 125.735 434.885 126.282 435.126C126.555 435.246 126.768 435.366 126.911 435.455C126.982 435.5 127.036 435.536 127.072 435.561L127.11 435.588L127.12 435.596C127.24 435.69 127.415 435.669 127.51 435.549C127.604 435.429 127.583 435.255 127.462 435.161C127.436 435.142 126.094 434.094 123.998 434.091C122.896 434.091 121.591 434.387 120.192 435.268C120.063 435.35 120.024 435.52 120.106 435.65C120.188 435.779 120.36 435.817 120.489 435.736Z" fill="#8CEAE7"/>
<path d="M116.065 371.618L110.608 317.528L112.307 302.936L142.589 317.528L137.165 361.807L138.274 367.972L133.6 379.293L116.065 371.618Z" fill="#00649F"/>
<path d="M145.283 368.273L142.589 317.528H171.802L165.428 362.649L166.538 368.813L161.863 380.134L145.283 368.273Z" fill="#00649F"/>
<path d="M155.447 169.34C155.594 167.933 154.972 166.743 153.523 166.593C152.073 166.443 150.779 167.463 150.632 168.869C150.485 170.277 150.751 171.404 152.201 171.554C153.651 171.704 155.301 170.747 155.447 169.34Z" fill="#C2866E"/>
<path d="M140.501 186.28C143.912 186.685 150.935 183.522 151.832 178.539L154.256 164.32C155.249 158.808 149.436 153.672 145.342 153.008L143.477 152.816C137.667 152.215 132.585 156.466 132.42 162.064L131.861 176.476C131.712 181.536 137.249 185.894 140.501 186.28Z" fill="#C2866E"/>
<path d="M129.723 166.992C129.526 168.395 130.796 169.973 132.25 170.059C132.992 170.103 132.762 165.08 132.531 165.002C131.145 164.533 129.921 165.59 129.723 166.992Z" fill="#C2866E"/>
<path d="M132.079 157.587C132.545 156.112 133.4 153.261 136.371 153.355C137.589 152.623 138.1 152.546 139.445 152.324C141.82 151.934 146.63 152.255 149.016 153.032C152.681 154.224 152.725 156.983 152.725 156.983C152.725 156.983 154.405 157.561 154.685 159.712C154.955 161.784 154.219 167.78 154.219 167.78L153.375 170.045L153.032 162.606C151.173 163.823 145.072 164.648 142.546 164.479C139.614 164.281 134.835 162.439 133.172 161.102L132.148 169.074C132.148 169.074 131.291 166.942 131.166 166.191C130.813 164.062 131.387 159.776 132.079 157.587Z" fill="#2E1709"/>
<path d="M118.301 226.164C118.301 226.164 115.339 196.481 114.574 195.9C113.375 194.992 107.93 200.972 106.639 203.366C103.084 209.964 99.551 225.43 98.4757 232.192C97.1812 240.333 95.0955 255.446 97.5981 262.537C98.2154 264.286 101.931 268.568 101.931 268.568L113.871 247.92L118.301 226.164Z" fill="#00C18D"/>
<path d="M129.703 268.234H166.659L174.965 216.083H138.009L129.703 268.234Z" fill="#BDFFD8"/>
<path d="M174.641 251.306L167.795 247.417C167.795 247.417 163.182 245.388 162.195 244.653C161.443 244.093 155.594 240.128 155.403 238.03C155.379 237.769 155.761 236.727 155.761 236.727C155.761 236.727 155.316 235.527 155.067 235.203C154.814 234.873 155.94 234.109 157.277 234.242C157.356 234.249 158.399 234.454 159.623 234.698C161.459 235.062 164.635 234.748 164.635 234.748C164.635 234.748 162.557 233.545 160.75 233.228C159.795 233.061 157.597 233.012 156.955 232.148C156.778 231.909 156.952 230.752 158.529 230.447C159.911 230.18 167.269 231.149 171.817 232.157C172.38 232.281 172.898 228.969 172.898 228.969C174.297 228.969 176.491 231.262 177.164 232.238C178.668 234.419 180.282 243.459 180.282 243.459L174.641 251.306Z" fill="#C2866E"/>
<path d="M168.744 249.221L180.609 241.07C180.609 241.07 190.474 249.499 190.499 253.454C190.51 255.192 187.973 258.754 186.226 259.864C185.058 260.606 182.002 261.204 180.737 260.878C176.271 259.729 168.744 249.221 168.744 249.221Z" fill="#00C18D"/>
<path d="M128.504 253.361L139.862 252.25C139.862 252.25 143.664 251.679 144.652 250.943C145.404 250.384 151.253 246.419 151.444 244.321C151.467 244.061 151.085 243.018 151.085 243.018C151.085 243.018 151.531 241.818 151.78 241.495C152.033 241.165 150.907 240.4 149.57 240.533C149.491 240.54 148.447 240.746 147.224 240.989C145.388 241.353 142.212 241.039 142.212 241.039C142.212 241.039 144.339 240.125 146.146 239.809C147.101 239.642 149.3 239.592 149.941 238.728C150.118 238.49 149.945 237.333 148.368 237.028C146.985 236.76 139.475 237.056 135.029 238.448C134.701 238.551 134.389 238.259 134.465 237.925L134.884 236.092C132.329 236.233 131.774 237.845 131.044 238.756C129.385 240.824 122.863 245.514 122.863 245.514L128.504 253.361Z" fill="#C2866E"/>
<path d="M132.883 254.846L122.863 243.396L113.134 248.291L101.931 260.139C101.931 260.139 101.042 267.757 101.931 268.568C102.967 269.512 108.535 269.854 110.608 269.199C116.929 267.198 132.883 254.846 132.883 254.846Z" fill="#00C18D"/>
<path d="M350.719 332.546C350.196 329.621 347.693 329.957 344.347 329.792C341.062 329.63 335.321 328.984 332.24 330.131C330.699 330.705 328.225 334.682 328.153 334.782L327.14 337.061C327.14 337.061 328.172 337.819 328.459 337.247C329.54 335.097 331.178 334.098 331.178 334.098L327.462 338.036C327.462 338.036 328.037 338.668 328.961 338.606C329.75 338.553 330.544 337.678 331.042 337.248C331.964 336.449 333.722 334.808 333.722 334.808L330.939 340.269C330.852 340.446 330.985 340.652 331.183 340.644C331.631 340.626 332.253 340.527 332.575 340.322C332.979 340.065 335.123 337.853 335.68 336.547C335.826 336.205 337.597 335.453 338.38 335.36C339.018 335.286 340.554 336.562 338.251 336.743C337.571 336.798 336.434 336.538 335.779 337.161C335.65 337.283 335.264 337.751 335.61 337.989C335.947 338.223 336.933 338.671 337.718 338.742C338.959 338.854 340.059 338.814 340.512 338.866C343.658 339.229 344.707 337.919 345.83 337.479C349.881 335.893 351.005 334.148 350.719 332.546Z" fill="#FFD0CE"/>
<path d="M373.158 288.588C371.484 293.606 367.798 316.057 367.798 316.057C367.798 316.057 367.421 319.322 350.243 323.693C349.257 323.944 348.921 325.486 348.537 326.501C348.478 326.656 346.56 327.47 346.103 327.873C345.111 328.75 348.971 337.183 348.971 337.183L351.21 336.624C351.21 336.624 352.007 337.404 353.051 337.587C360.445 338.883 377.136 327.7 382.077 324.837C382.921 324.348 382.091 323.891 382.553 322.015C385.586 309.725 382.578 297.088 384.686 284.936C385.008 283.075 381.537 279.872 380.245 280.1C376.557 280.75 375.028 282.988 373.158 288.588Z" fill="#1890FF"/>
<path d="M378.769 238.314C383.322 241.203 386.282 247.828 383.807 252.446C381.668 256.441 368.766 259.799 367.825 260.033C358.99 262.222 357.987 252.032 359.12 247.358C361.026 239.499 370.273 232.923 378.769 238.314Z" fill="#0050B2"/>
<path d="M392.945 283.667C388.963 285.504 380.532 283.766 378.038 282.076C378.038 282.076 379.578 274.964 380.481 274.21C386.395 269.272 386.28 270.089 395.739 269.895C396.86 269.872 398.715 274.35 398.715 274.35C398.777 274.688 396.448 282.051 392.945 283.667Z" fill="#FFC6C3"/>
<path d="M382.482 254.975L376.771 265.841C376.531 265.922 376.402 266.182 376.484 266.421L380.905 276.359C381.808 279.013 383.061 278.655 385.727 277.754C388.392 276.854 390.491 273.745 389.587 271.09L383.065 255.261C382.983 255.022 382.722 254.893 382.482 254.975Z" fill="#FFC6C3"/>
<path d="M383.266 255.814L384.228 249.83C384.228 249.83 388.451 255.8 390.768 260.389C394.55 267.88 395.192 274.186 391.768 280.431C388.62 286.173 390.365 284.338 390.223 284.356C390.223 284.356 385.902 283.45 386.269 279.689C387.221 269.947 386.868 268.378 386.617 265.303C386.265 260.979 383.266 255.814 383.266 255.814Z" fill="#0050B2"/>
<path d="M384.729 253.276C384.922 254.555 384.046 255.745 382.774 255.935C381.503 256.124 380.316 255.241 380.124 253.962C379.932 252.683 380.807 251.493 382.079 251.304C383.351 251.114 384.537 251.997 384.729 253.276Z" fill="#FFC6C3"/>
<path d="M363.078 260.331C365.241 268.017 372.179 271.784 375.077 270.373C381.127 267.43 384.039 261.722 381.877 254.036C379.714 246.349 373.986 242.278 368.712 243.749C363.439 245.22 360.917 252.644 363.078 260.331Z" fill="#FFD0CE"/>
<path d="M373.653 240.033C380.766 241.088 382.182 250.866 382.079 251.304C381.915 251.999 380.992 252.675 380.581 252.646C373.289 252.146 363.725 248.896 363.725 248.896C363.725 248.896 358.871 255.985 367.602 271.998C367.602 271.998 362.363 266.581 359.97 257.921C356.941 246.962 363.331 238.501 373.653 240.033Z" fill="#0050B2"/>
<path d="M332.718 406.026L332.813 434.334L337.558 436.743L341.786 435.309C341.786 435.309 341.869 428.267 342.559 423.562C343.267 418.738 345.138 407.15 345.138 407.15L332.718 406.026Z" fill="#FFD0CE"/>
<path d="M354.299 409.583L355.677 444.516L363.767 446.987C363.767 446.987 365.897 431.624 366.362 426.925C366.658 423.936 367.443 409.684 367.443 409.684L354.299 409.583Z" fill="#FFD0CE"/>
<path d="M379.952 318.208L414.447 321.707C414.447 321.707 417.099 339.397 417.559 349.483C417.855 355.965 410.918 363.763 381.665 370.756C377.498 371.752 374.218 374.596 374.223 376.747C374.285 400.534 368.794 425.521 368.794 425.521L357.757 427.662L353.453 425.402C353.453 425.402 353.265 394.62 351.488 384.695C349.128 371.508 350.299 379.024 349.444 386.356C348.555 393.976 346.769 413.573 346.769 413.573L334.621 414.202L331.852 412.82C331.852 412.82 330.166 376.507 329.966 363.876C329.714 347.904 374.636 332.843 374.636 332.843C377.211 325.143 379.952 318.208 379.952 318.208Z" fill="#004381"/>
<path d="M375.866 284.119C376.402 281.867 379.253 276.064 379.253 276.064L380.897 277.336L391.608 269.308C391.608 269.308 402.348 271.549 405.538 273.667C413.345 278.85 413.237 287.486 414.299 294.127C414.724 296.783 416.926 307.165 416.204 317.754C416.001 320.716 416.292 326.401 413.922 327.527C406.077 331.254 380.583 328.29 378.145 322.918C376.852 320.068 380.588 309.516 378.978 305.362C378.151 303.23 376.006 299.825 375.038 297.754C373.005 293.399 375.279 286.586 375.866 284.119Z" fill="#34EABE"/>
<path d="M344.749 457.292L352.961 457.843C354.065 457.917 355.156 457.569 356.01 456.869L360.896 452.867L364.389 451.555L364.381 450.452C364.798 448.504 364.312 444.978 364.312 444.978C364.312 444.978 362.228 446.591 359.421 444.395C357.868 443.18 356.31 443.458 354.614 444.466L353.277 446.906L345.412 454.26C345.001 454.644 344.766 455.181 344.761 455.743L344.749 457.292Z" fill="#004381"/>
<path d="M376.664 278.704L379.298 275.094L381.079 277.193L378.458 282.077L376.664 278.704Z" fill="#00D0BC"/>
<path d="M380.897 277.336L383.439 282.718C387.584 280.015 398.75 269.991 398.75 269.991L392.337 267.96L380.897 277.336Z" fill="#00D0BC"/>
<path d="M342.714 436.766L342.068 433.928L340.127 434.636C338.413 435.261 336.494 434.924 335.098 433.753L332.513 431.582L325.521 438.071C325.109 438.453 324.633 438.762 324.114 438.981L319.075 441.113C317.989 441.572 317.174 442.486 316.836 443.594C316.76 443.845 316.952 444.1 317.216 444.102L327.926 444.185C328.354 444.187 328.778 444.105 329.173 443.94L335.039 441.523L335.323 442.81L341.947 442.861C341.947 442.861 342.151 442.059 342.285 441.475C342.361 441.139 342.867 440.047 342.867 440.047C343.013 438.93 342.963 437.864 342.714 436.766Z" fill="#004381"/>
<path d="M388.332 256.629C397.935 269.527 393.932 287.401 393.932 287.401L383.657 287.996C383.657 287.996 388.709 276.861 386.058 261.825C385.305 257.553 385.26 252.502 388.332 256.629Z" fill="#0050B2"/>
<path d="M348.875 360.39L335.477 329.944L304.918 322.93L319.753 350.631L348.875 360.39Z" fill="#EA659D"/>
<path d="M348.875 360.39L375.843 345.645L344.592 335.935L339.452 338.977" fill="#EA659D"/>
<path d="M348.6 359.767L373.022 346.536L372.967 345.72L344.723 336.63L339.688 339.511" fill="#DCF5F9"/>
<path d="M361.169 338.634C361.228 338.527 362.827 335.64 364.285 334.88C367.199 333.361 373.725 332.58 377.005 332.336C380.346 332.086 386.007 329.762 386.89 332.599C387.374 334.154 382.542 339.39 381.253 340.059C379.494 340.975 375.758 341.069 373.982 341.952C372.942 342.47 371.427 343.463 370.627 344.302C370.359 344.584 369.788 345.196 369.405 345.268C369.246 345.298 368.778 345.107 368.778 345.107C368.778 345.107 368.093 346.414 367.698 346.682C367.327 346.933 365.948 347.079 365.948 347.079L367.665 339.856L365.398 342.891C365.398 342.891 364.546 345.237 363.955 345.781C363.275 346.407 362.496 345.984 362.496 345.984L364.241 338.152C364.241 338.152 361.582 341.711 360.335 342.052C359.781 342.204 358.783 341.984 358.783 341.984L361.169 338.634Z" fill="#FFD0CE"/>
<path d="M398.829 286.998C398.018 294.497 402.209 313.403 402.209 313.403C402.209 313.403 396.194 320.48 381.922 326.268C380.979 326.651 380.65 327.668 380.235 328.672C380.171 328.824 378.043 329.916 377.89 330.615C377.375 332.976 381.327 339.637 383.729 339.975C384.134 340.033 385.503 339.158 385.503 339.158C385.503 339.158 386.891 339.648 387.865 339.231C401.202 333.535 413.156 327.969 417.608 319.816C417.874 319.33 417.862 318.168 417.837 317.616C417.486 309.754 415.862 295.907 414.45 287.231C413.924 284.005 411.301 274.723 406.675 274.718C401.275 274.713 399.463 281.132 398.829 286.998Z" fill="#1890FF"/>
</g>
<defs>
<clipPath id="clip0_1440_45">
<rect width="472" height="470" fill="white"/>
</clipPath>
</defs>
</svg>
