<svg xmlns="http://www.w3.org/2000/svg" width="60" height="60" fill="none">
    <path fill="#d1d1d1" d="M50.83 41.45a7.53 7.53 0 0 0-3.2-5.96 15.06 15.06 0 0 0-5.26-2.37c-.61-.17-1.22-.3-1.8-.44l-1.27-.3c-.5-.12-.91-.2-1.28-.32-.2-.07-.52-.15-.68-.28-.11-.1-.06-.32 0-.45a16.7 16.7 0 0 0 1.85-4.82c1.86-1.5 1.92-3.71 1.95-4.7.02-.7-.15-1.3-.5-1.74 0-.72.02-1.47-.01-2.22a9.9 9.9 0 0 0-.4-2.38 6.75 6.75 0 0 0-4.81-4.8c-.8-.96-2.2-1.87-4.61-1.87-1.5 0-3 .34-4.15.63a8.32 8.32 0 0 0-4.42 2.59c-1.48 1.73-2.14 3.86-2 6.52.02.55.07 1.1.13 1.62a2.84 2.84 0 0 0-.55 1.94c.04 1.79.68 3.2 2 4.45.06.18.1.38.15.58.1.4.2.82.34 1.26.3.9.87 1.6 1.07 2.4.17.69.08.79-.33.93l-.74.23c-.73.2-1.4.34-2.13.54l-3.2.88a13.4 13.4 0 0 0-4.93 2.45c-1.2 1-2.6 2.44-2.9 4.7-.2 1.46-.2 2.96-.02 4.47a3.67 3.67 0 0 0 1.89 2.86 28.35 28.35 0 0 0 6.15 2.65 43.09 43.09 0 0 0 12.8 1.85c4.83 0 9.19-.64 13.32-1.96 2-.64 3.75-1.42 5.36-2.38 1.59-.95 2-2.22 2.05-3.11l.04-.59c.06-.92.13-1.87.1-2.85z"/>
    <path fill="#1890ff" d="M48.57 44.76c-.05.73-.5 1.2-1.1 1.56a23.58 23.58 0 0 1-4.95 2.2 41.94 41.94 0 0 1-13.5 1.86 40.9 40.9 0 0 1-11.46-1.75c-2-.62-3.93-1.4-5.73-2.46a1.75 1.75 0 0 1-.94-1.4 16.4 16.4 0 0 1 .02-4c.19-1.5 1.12-2.54 2.22-3.45a11.3 11.3 0 0 1 4.22-2.07c1.78-.52 3.58-.99 5.37-1.49a11.3 11.3 0 0 0 2.44 3.97 6.92 6.92 0 0 0 4.9 2.2c2.62 0 5.04-1.67 6.47-4.47.26-.51.5-1.04.7-1.6.47.17.94.3 1.41.42 1.01.25 2.03.45 3.04.72 1.64.44 3.22 1.04 4.61 2.06a5.57 5.57 0 0 1 2.41 4.46c.04 1.08-.06 2.16-.13 3.24zM23.1 25.24c.16.15.3.37.36.58.2.65.3 1.32.51 1.96a8.67 8.67 0 0 0 2.56 4.02 6 6 0 0 0 3.87 1.46 6 6 0 0 0 5.1-2.96 12.4 12.4 0 0 0 1.64-4.45c.03-.21.1-.5.25-.6 1.34-.8 1.57-2.12 1.6-3.5.02-.52-.1-.6-.5-.65 0-1.06.04-2.1 0-3.16a8 8 0 0 0-.32-1.9 4.81 4.81 0 0 0-3.35-3.45c-.27-.08-.66.01-.8-.24-.7-1.21-1.98-1.6-3.4-1.6-1.21 0-2.52.28-3.66.57a6.44 6.44 0 0 0-3.43 1.97c-1.27 1.49-1.63 3.26-1.54 5.15.05.91.18 1.82.28 2.76-.69.05-.7.3-.7.85a4.07 4.07 0 0 0 1.53 3.19z"/>
</svg>
