<svg width="30" height="30" viewBox="0 0 30 30" fill="none" xmlns="http://www.w3.org/2000/svg">
<g clip-path="url(#clip0_1443_656)">
<path d="M24.9004 6.99422L21.9421 5.58923L22.0955 5.26632C22.7666 3.8531 22.163 2.15722 20.7498 1.48594L18.2017 0.275849C17.5173 -0.049385 16.7471 -0.0882567 16.033 0.165783C15.3189 0.419928 14.7466 0.936985 14.4215 1.62157L14.2681 1.94448L11.3098 0.539395C9.76204 -0.195577 7.90444 0.465666 7.16915 2.01346L6.41178 3.60783C6.29158 3.86092 6.27689 4.1514 6.3708 4.41527C6.46481 4.67923 6.6597 4.89504 6.91278 5.01524L14.7524 8.73869H4.38169C4.08624 8.73869 3.80442 8.86238 3.60446 9.07977C3.4044 9.29726 3.30458 9.58838 3.32909 9.88277L4.71738 26.5412C4.87899 28.4808 6.53019 30 8.47653 30H16.2445C18.1908 30 19.842 28.4808 20.0036 26.5412L21.2308 11.8156L24.2101 13.2306C24.3564 13.3001 24.5106 13.3329 24.6625 13.3329C25.0575 13.3329 25.4365 13.1103 25.6174 12.7296L26.3746 11.1353C27.1095 9.58711 26.4483 7.7295 24.9004 6.99422ZM16.3298 2.52787C16.4128 2.35306 16.559 2.22102 16.7413 2.15595C16.9239 2.0911 17.1205 2.10092 17.2953 2.18416L19.8432 3.39414C20.2043 3.56569 20.3585 3.99898 20.1871 4.36002L20.0337 4.68293L16.1763 2.85089L16.3298 2.52787ZM17.8981 26.3656C17.827 27.2188 17.1006 27.8872 16.2444 27.8872H8.47642C7.62019 27.8872 6.89377 27.2188 6.82268 26.3656L5.52977 10.8512H19.1911L17.8981 26.3656ZM24.466 10.2287L24.162 10.8688L8.77335 3.55988L9.07745 2.91965C9.3129 2.42372 9.90802 2.21215 10.4035 2.4476L23.994 8.90242C24.4898 9.13797 24.7016 9.73298 24.466 10.2287Z" fill="#1E54A2"/>
</g>
<defs>
<clipPath id="clip0_1443_656">
<rect width="30" height="30" fill="white"/>
</clipPath>
</defs>
</svg>
