<svg width="60" height="60" viewBox="0 0 60 60" fill="none" xmlns="http://www.w3.org/2000/svg">
<path d="M1.87495 13.125H58.1249C59.1599 13.125 59.9998 12.285 59.9998 11.2501C59.9998 10.215 59.1598 9.37512 58.1249 9.37512H1.87495C0.840065 9.37512 0 10.215 0 11.2501C0 12.2851 0.840065 13.125 1.87495 13.125Z" fill="white"/>
<path d="M58.1249 28.1251H1.87495C0.83991 28.1251 0 28.9652 0 30.0001C0 31.035 0.840065 31.875 1.87495 31.875H58.1249C59.1599 31.875 59.9998 31.035 59.9998 30.0001C59.9998 28.9652 59.1599 28.1251 58.1249 28.1251Z" fill="white"/>
<path d="M58.1249 46.8751H1.87495C0.83991 46.8751 0 47.7152 0 48.7501C0 49.7851 0.840065 50.625 1.87495 50.625H58.1249C59.1599 50.625 59.9998 49.785 59.9998 48.7501C60 47.715 59.1599 46.8751 58.1249 46.8751Z" fill="white"/>
</svg>
