<svg width="30" height="30" viewBox="0 0 30 30" fill="none" xmlns="http://www.w3.org/2000/svg">
<g clip-path="url(#clip0_1443_639)">
<path d="M27.4711 5.98122V5.61972C27.4711 4.17371 26.2914 3 24.838 3C23.3846 3 22.2048 4.17371 22.2048 5.61972V5.98122H27.4711Z" fill="#1E54A2"/>
<path d="M21.3318 23.6338H6.87776C6.22184 23.6338 5.6886 24.1643 5.6886 24.8169C5.6886 25.4695 6.22184 26 6.87776 26H22.9645L21.3318 23.6338Z" fill="#1E54A2"/>
<path d="M20.6664 9.44604H6.87776C6.22184 9.44604 5.6886 9.97656 5.6886 10.6291C5.6886 11.2817 6.22184 11.8122 6.87776 11.8122H20.6664V9.44604Z" fill="#1E54A2"/>
<path d="M20.6664 14.1737H6.87776C6.22184 14.1737 5.6886 14.7042 5.6886 15.3568C5.6886 16.0094 6.22184 16.5399 6.87776 16.5399H20.6664V14.1737Z" fill="#1E54A2"/>
<path d="M20.6664 18.9015H6.87776C6.22184 18.9015 5.6886 19.432 5.6886 20.0846C5.6886 20.7372 6.22184 21.2677 6.87776 21.2677H20.6664V18.9015Z" fill="#1E54A2"/>
<path d="M22.2095 7.51648V22.2066L24.6067 25.6526C24.7199 25.8169 24.9653 25.8169 25.0833 25.6526L27.4805 22.2066V7.51648H22.2095Z" fill="#1E54A2"/>
</g>
<defs>
<clipPath id="clip0_1443_639">
<rect width="23.118" height="23" fill="white" transform="translate(5.02563 3)"/>
</clipPath>
</defs>
</svg>
