<svg width="73" height="73" viewBox="0 0 73 73" fill="none" xmlns="http://www.w3.org/2000/svg">
<path d="M55.748 33.3558H17.252C15.5519 33.3608 13.9228 34.0384 12.7206 35.2405C11.5185 36.4427 10.8409 38.0718 10.8359 39.7719V62.8695C10.8409 64.5696 11.5185 66.1987 12.7206 67.4008C13.9228 68.603 15.5519 69.2805 17.252 69.2855H55.748C57.4482 69.2805 59.0772 68.603 60.2794 67.4008C61.4815 66.1987 62.1591 64.5696 62.1641 62.8695V39.7719C62.1591 38.0718 61.4815 36.4427 60.2794 35.2405C59.0772 34.0384 57.4482 33.3608 55.748 33.3558ZM26.2519 52.6654C26.4128 52.7578 26.5539 52.8811 26.6671 53.0281C26.7803 53.1751 26.8634 53.343 26.9116 53.5222C26.9598 53.7014 26.9722 53.8883 26.9481 54.0723C26.9239 54.2562 26.8638 54.4336 26.771 54.5943C26.6782 54.755 26.5546 54.8958 26.4073 55.0087C26.2601 55.1215 26.092 55.2042 25.9127 55.252C25.7334 55.2998 25.5465 55.3118 25.3626 55.2873C25.1786 55.2627 25.0014 55.2022 24.8409 55.109L22.5126 53.7647V56.4536C22.5126 56.8278 22.3639 57.1867 22.0993 57.4514C21.8347 57.716 21.4758 57.8646 21.1016 57.8646C20.7274 57.8646 20.3684 57.716 20.1038 57.4514C19.8392 57.1867 19.6906 56.8278 19.6906 56.4536V53.7647L17.3623 55.109C17.0383 55.2951 16.6537 55.3451 16.2929 55.248C15.9321 55.1509 15.6245 54.9147 15.4377 54.5911C15.2509 54.2676 15.2 53.8831 15.2963 53.5221C15.3926 53.1611 15.6281 52.853 15.9512 52.6654L18.2802 51.3208L15.9512 49.9762C15.6281 49.7886 15.3926 49.4806 15.2963 49.1195C15.2 48.7585 15.2509 48.3741 15.4377 48.0505C15.6245 47.7269 15.9321 47.4907 16.2929 47.3936C16.6537 47.2965 17.0383 47.3465 17.3623 47.5326L19.6906 48.8769V46.188C19.6906 45.8138 19.8392 45.4549 20.1038 45.1902C20.3684 44.9256 20.7274 44.777 21.1016 44.777C21.4758 44.777 21.8347 44.9256 22.0993 45.1902C22.3639 45.4549 22.5126 45.8138 22.5126 46.188V48.8769L24.8409 47.5326C25.1649 47.3465 25.5495 47.2965 25.9103 47.3936C26.2711 47.4907 26.5786 47.7269 26.7655 48.0505C26.9523 48.3741 27.0032 48.7585 26.9069 49.1195C26.8106 49.4806 26.5751 49.7886 26.2519 49.9762L23.923 51.3208L26.2519 52.6654ZM41.6503 52.6654C41.8112 52.7578 41.9523 52.8811 42.0655 53.0281C42.1787 53.1751 42.2618 53.343 42.31 53.5222C42.3582 53.7014 42.3706 53.8883 42.3465 54.0723C42.3224 54.2562 42.2622 54.4336 42.1694 54.5943C42.0766 54.755 41.9531 54.8958 41.8058 55.0087C41.6585 55.1215 41.4904 55.2042 41.3111 55.252C41.1319 55.2998 40.9449 55.3118 40.761 55.2873C40.5771 55.2627 40.3998 55.2022 40.2393 55.109L37.911 53.7647V56.4536C37.911 56.8278 37.7624 57.1867 37.4978 57.4514C37.2331 57.716 36.8742 57.8646 36.5 57.8646C36.1258 57.8646 35.7669 57.716 35.5023 57.4514C35.2376 57.1867 35.089 56.8278 35.089 56.4536V53.7647L32.7607 55.109C32.4367 55.2951 32.0521 55.3451 31.6913 55.248C31.3305 55.1509 31.023 54.9147 30.8361 54.5911C30.6493 54.2676 30.5984 53.8831 30.6947 53.5221C30.791 53.1611 31.0265 52.853 31.3497 52.6654L33.6786 51.3208L31.3497 49.9762C31.0265 49.7886 30.791 49.4806 30.6947 49.1195C30.5984 48.7585 30.6493 48.3741 30.8361 48.0505C31.023 47.7269 31.3305 47.4907 31.6913 47.3936C32.0521 47.2965 32.4367 47.3465 32.7607 47.5326L35.089 48.8769V46.188C35.089 45.8138 35.2376 45.4549 35.5023 45.1902C35.7669 44.9256 36.1258 44.777 36.5 44.777C36.8742 44.777 37.2331 44.9256 37.4978 45.1902C37.7624 45.4549 37.911 45.8138 37.911 46.188V48.8769L40.2393 47.5326C40.5633 47.3465 40.9479 47.2965 41.3087 47.3936C41.6695 47.4907 41.9771 47.7269 42.1639 48.0505C42.3507 48.3741 42.4016 48.7585 42.3053 49.1195C42.209 49.4806 41.9735 49.7886 41.6503 49.9762L39.3214 51.3208L41.6503 52.6654ZM57.0488 52.6654C57.2097 52.7578 57.3508 52.8811 57.464 53.0281C57.5771 53.1751 57.6602 53.343 57.7084 53.5222C57.7567 53.7014 57.7691 53.8883 57.7449 54.0723C57.7208 54.2562 57.6606 54.4336 57.5678 54.5943C57.4751 54.755 57.3515 54.8958 57.2042 55.0087C57.0569 55.1215 56.8889 55.2042 56.7096 55.252C56.5303 55.2998 56.3433 55.3118 56.1594 55.2873C55.9755 55.2627 55.7982 55.2022 55.6378 55.109L53.3095 53.7647V56.4536C53.3095 56.8278 53.1608 57.1867 52.8962 57.4514C52.6316 57.716 52.2727 57.8646 51.8984 57.8646C51.5242 57.8646 51.1653 57.716 50.9007 57.4514C50.6361 57.1867 50.4874 56.8278 50.4874 56.4536V53.7647L48.1591 55.109C47.8351 55.2951 47.4506 55.3451 47.0898 55.248C46.729 55.1509 46.4214 54.9147 46.2346 54.5911C46.0477 54.2676 45.9969 53.8831 46.0932 53.5221C46.1894 53.1611 46.425 52.853 46.7481 52.6654L49.077 51.3208L46.7481 49.9762C46.425 49.7886 46.1894 49.4806 46.0932 49.1195C45.9969 48.7585 46.0477 48.3741 46.2346 48.0505C46.4214 47.7269 46.729 47.4907 47.0898 47.3936C47.4506 47.2965 47.8351 47.3465 48.1591 47.5326L50.4874 48.8769V46.188C50.4874 45.8138 50.6361 45.4549 50.9007 45.1902C51.1653 44.9256 51.5242 44.777 51.8984 44.777C52.2727 44.777 52.6316 44.9256 52.8962 45.1902C53.1608 45.4549 53.3095 45.8138 53.3095 46.188V48.8769L55.6378 47.5326C55.9618 47.3465 56.3463 47.2965 56.7071 47.3936C57.0679 47.4907 57.3755 47.7269 57.5623 48.0505C57.7492 48.3741 57.8 48.7585 57.7038 49.1195C57.6075 49.4806 57.3719 49.7886 57.0488 49.9762L54.7199 51.3208L57.0488 52.6654Z" fill="#1890FF"/>
<path d="M22.5126 20.5239C22.5126 16.8142 23.9863 13.2565 26.6094 10.6333C29.2326 8.0102 32.7903 6.53653 36.5 6.53653C40.2097 6.53653 43.7675 8.0102 46.3906 10.6333C49.0138 13.2565 50.4874 16.8142 50.4874 20.5239V30.5327H53.3095V20.5239C53.3095 16.0658 51.5385 11.7902 48.3861 8.63786C45.2337 5.48547 40.9582 3.71448 36.5 3.71448C32.0419 3.71448 27.7663 5.48547 24.6139 8.63786C21.4615 11.7902 19.6906 16.0658 19.6906 20.5239V30.5327H22.5126V20.5239Z" fill="#1890FF"/>
</svg>
