<svg xmlns="http://www.w3.org/2000/svg" width="36" height="29" fill="none">
    <path fill="#fff" d="M24.04 16.92c-1.36 0-2.47 1.5-2.47 3.33 0 1.84 1.1 3.33 2.47 3.33s2.47-1.5 2.47-3.33c0-1.84-1.1-3.33-2.47-3.33Zm8.6-8.66c.28-.68.3-4.51-1.2-8.19 0 0-3.45.37-8.65 3.85-1.1-.3-2.94-.44-4.79-.44s-3.7.14-4.79.44C8.01.44 4.57.07 4.57.07c-1.5 3.68-1.49 7.51-1.21 8.19a9.9 9.9 0 0 0-2.84 7.16c0 13.3 11.33 13.5 14.19 13.5l3.3.01h3.28c2.86 0 14.19-.22 14.19-13.51a9.9 9.9 0 0 0-2.84-7.16ZM18.05 27.29h-.1c-7.17 0-12.75-.83-12.75-7.61 0-1.63.59-3.13 1.99-4.38 2.33-2.09 6.28-.99 10.76-.99h.1c4.48 0 8.43-1.1 10.76.99a5.67 5.67 0 0 1 1.99 4.38c0 6.78-5.58 7.61-12.75 7.61Zm-6.09-10.37c-1.36 0-2.47 1.5-2.47 3.33 0 1.84 1.1 3.33 2.47 3.33s2.47-1.5 2.47-3.33c0-1.84-1.1-3.33-2.47-3.33Z"/>
</svg>
