<svg width="30" height="30" viewBox="0 0 30 30" fill="none" xmlns="http://www.w3.org/2000/svg">
<g clip-path="url(#clip0_1748_20)">
<path d="M22.6097 24.8744C23.2768 24.8744 24.06 24.443 24.3453 23.8549L29.8945 13.3533C30.2267 12.7144 29.7438 12.3336 28.875 12.3336H23.2712V9.82437C23.2712 8.95834 22.5667 8.25385 21.7006 8.25385H7.98201L6.9642 5.58218C6.85826 5.30476 6.5922 5.12122 6.29502 5.12122H0.729627C0.539279 5.12122 0.356266 5.19711 0.221639 5.33238C0.087366 5.46772 0.01254 5.65056 0.0136047 5.84144L0.0272094 9.82437L0 23.3084C0 24.1744 0.704665 24.8789 1.57069 24.8789M21.8391 12.334H9.61996C9.05672 12.334 8.52407 12.7892 8.24227 13.3537L3.25295 23.4469H1.57069C1.49445 23.4469 1.43204 23.3847 1.43204 23.3084V9.82052L1.43133 6.55361H5.80164L6.81957 9.22511C6.92551 9.50253 7.19139 9.68625 7.48857 9.68625H21.7007C21.7769 9.68625 21.8391 9.74848 21.8391 9.82472V12.334H21.8391Z" fill="#1E54A2"/>
</g>
<defs>
<clipPath id="clip0_1748_20">
<rect width="30" height="30" fill="white"/>
</clipPath>
</defs>
</svg>
