<svg xmlns="http://www.w3.org/2000/svg" width="120" height="43" fill="none">
    <path fill="#fff" d="M68.03.6c-3.43.78-5.14 2.56-5.16 5.39-.02 3.29 1.85 4.8 7.84 6.34 2.92.74 3.9 2.04 2.53 3.3-1.56 1.43-4.62.5-5-1.52-.2-1-.2-1-3.4-.83l-2.84.16.13.88a8.7 8.7 0 0 0 2.32 4.28c2.88 2.43 10.8 2.18 13.52-.42l.79-.76.15.88c.56 3.26 3.92 6.32 7.78 7.1l1.24.24-.74.95c-2.41 3.12-2.48 9.5-.13 12.82 3.6 5.07 13.7 4.92 17.03-.25l.62-.96v4.59h15.68v-4.94h-9.36V23.47h-6.32l-.01 2.2c-.01 1.8-.06 2.12-.27 1.78a9.45 9.45 0 0 0-5.83-4.02l-1.23-.25 1.25-.93c3.9-2.88 6.32-8.15 5.7-12.37-1.64-11.08-17.83-11.25-24-.26l-.75 1.34c-.02.03-.57-.46-1.23-1.1-1.38-1.3-2.48-1.79-6.23-2.7-3.5-.86-4.2-1.45-3.03-2.54 1.11-1.04 3.54-.37 4.09 1.13.32.87.26.86 3.97.62l2.15-.14-.14-.84c-.63-3.9-5.62-6.06-11.12-4.8ZM1.31 10.37v9.65h6.31v-7.72h.64c1.01 0 1.63.73 3.58 4.29l1.82 3.32 3.51.06c1.94.04 3.51 0 3.51-.06 0-1.1-3.93-7.37-5.02-8.02l-.6-.36 1.2-.63C20.76 8.61 19.9 1.98 15 .94 14.37.81 11.23.72 7.61.72H1.3v9.65ZM96.89 2.4c9.86 2.53 8.95 16.16-1.4 21.14-10.54 5.07-19.94-3.25-14.93-13.22C83.5 4.5 90.96.87 96.9 2.4ZM11.97 5.07c2.22 1.1.75 3.15-2.4 3.32l-1.95.11V4.8h1.9c1.1 0 2.14.12 2.45.27Zm81.44 1.7c-1.74.46-3.5 2.19-3.5 3.43 0 2.04 1.65 2.77 4.24 1.9 1.6-.55 2-.55 2.3 0 .49.91-1.14 1.85-2.1 1.2-.47-.34-2.24.7-2.26 1.32-.02.94 2.38 1.3 3.86.57 4.68-2.3 3.35-7.24-1.5-5.58-1.95.66-2.36.68-2.36.15 0-.83 1.32-1.43 1.9-.86.23.23 2.01-.94 2.01-1.33 0-.57-1.58-1.06-2.6-.8Zm-7.03 4.64c-1.04.74-1.09.55.82 3.21 1.17 1.64 1.62 2.45 1.58 2.84-.08.65-.83.83-1.35.31-.34-.33-.42-.3-1.21.37-2 1.68 1.04 3.13 3.29 1.57 2.47-1.72 2.47-2.78.01-6.32-1.9-2.75-1.99-2.8-3.14-1.98ZM6.47 23.26C2.9 23.8.82 25.86.79 28.85c-.02 3.04 1.98 4.77 6.93 6 3.04.74 4.04 1.31 4.04 2.3 0 2.78-5.04 2.5-5.58-.3-.18-.98-.16-.98-3.38-.8l-2.85.14.15.88c.65 4.04 3.02 5.72 8.33 5.88 4.2.13 5.64-.27 7.48-2.08l1.26-1.24.46.62c2.67 3.56 11.69 3.8 14.65.38.87-1 1.84-2.87 1.94-3.74.07-.6.05-.62-2.59-1.4l-2.66-.8-.36 1.06c-1.21 3.6-5.8 3.65-6.81.06-.35-1.22-.3-4.13.07-5.39.92-3.03 4.78-3.66 6.35-1.02.66 1.1.48 1.08 3.45.42 2.82-.63 2.7-.52 2.06-1.89-2.56-5.42-11.15-6.7-15.7-2.33l-1.27 1.22-.53-.89c-1.31-2.2-5.46-3.34-9.76-2.67Zm60.15 0a9.74 9.74 0 0 0-6.14 3.86c-.36.52-.37.48-.38-1.56l-.02-2.1h-6.3v6.66h-6.32v-6.65h-6.32v19.31h6.32v-7.72h6.31v7.72h6.31v-4.36l.69 1.01c2.83 4.22 11.6 4.96 15.6 1.32 4.62-4.22 3.71-13.81-1.56-16.46-2.03-1.03-5.6-1.47-8.2-1.03ZM10 27.22c.36.19.79.7 1.02 1.2l.4.9 4.25-.2-.14 1.09c-.18 1.45-.26 1.5-1.48.97-.58-.25-2.19-.74-3.58-1.08-3.3-.81-3.7-.99-3.87-1.65-.32-1.22 1.86-2.01 3.4-1.23Zm60.34.76c3.22.88 3.88 8.18.89 9.91a3.87 3.87 0 0 1-5.72-2.23c-1.32-4.82 1.12-8.7 4.83-7.68Zm26.32 0c3.75 1.02 3.67 9.32-.1 10.32-3.02.8-5.03-1.27-5.02-5.17.02-4.06 1.97-6.02 5.12-5.15Z"/>
</svg>
